<svg xmlns="http://www.w3.org/2000/svg" viewBox="0 0 24 24" width="28" height="28" color="#000000" fill="none">
    <defs />
    <path fill="#141B34" d="M6.736,22.255 C6.425,22.255 6.147,22.17 5.88,21.98 L5.867,21.971 C5.143,21.43 5.069,20.535 5.206,19.625 C4.128,19.407 3.268,18.984 2.643,18.362 C1.25,16.971 1.25,14.976 1.25,11 L1.25,10.5 C1.25,6.525 1.25,4.529 2.642,3.139 C4.032,1.75 6.027,1.75 10,1.75 L14,1.75 C17.973,1.75 19.967,1.75 21.358,3.139 C22.75,4.529 22.75,6.524 22.75,10.5 L22.75,11 C22.75,14.975 22.75,16.971 21.358,18.361 C19.968,19.749 17.976,19.75 14.007,19.75 C13.506,19.759 13.109,19.803 12.722,19.891 C11.781,20.103 10.854,20.567 9.957,21.016 C9.798,21.095 9.64,21.175 9.482,21.253 C8.263,21.846 7.421,22.255 6.737,22.255 L6.736,22.255 Z M6.745,20.752 C7.016,20.785 7.973,20.319 8.82,19.906 C8.973,19.831 9.129,19.753 9.285,19.675 C10.262,19.186 11.273,18.68 12.39,18.428 C12.881,18.316 13.374,18.261 13.986,18.25 L13.999,18.25 C17.559,18.25 19.345,18.25 20.297,17.299 C21.249,16.349 21.249,14.561 21.249,11 L21.249,10.5 C21.249,6.939 21.249,5.151 20.297,4.201 C19.345,3.25 17.559,3.25 13.999,3.25 L9.999,3.25 C6.439,3.25 4.653,3.25 3.701,4.201 C2.749,5.151 2.749,6.939 2.749,10.5 L2.749,11 C2.749,14.561 2.749,16.349 3.701,17.299 C4.122,17.718 4.741,18.008 5.547,18.163 C5.558,18.125 5.568,18.087 5.579,18.05 C5.655,17.783 5.727,17.53 5.764,17.349 C5.847,16.943 6.244,16.682 6.649,16.765 C7.055,16.848 7.316,17.245 7.233,17.65 C7.185,17.886 7.105,18.165 7.021,18.46 C6.879,18.96 6.453,20.459 6.743,20.751 L6.745,20.752 Z" />
</svg>