<svg xmlns="http://www.w3.org/2000/svg" viewBox="0 0 24 24" width="28" height="28" color="#000000" fill="none">
    <path fill-rule="evenodd" clip-rule="evenodd" d="M1.74902 9.49219C1.74902 13.7622 5.22902 17.2422 9.49902 17.2422C11.3648 17.2422 13.0797 16.5778 14.4194 15.4734C14.4347 15.4921 14.4511 15.5102 14.4685 15.5276L15.9685 17.0276L15.9686 17.0277C15.5784 17.8566 15.725 18.8793 16.4084 19.5627L18.4484 21.6028C18.8784 22.0328 19.4484 22.2428 20.0184 22.2428V22.2528C20.5884 22.2528 21.1584 22.0328 21.5984 21.6028C22.4684 20.7328 22.4684 19.3127 21.5984 18.4427L19.5584 16.4028C18.8744 15.7267 17.8568 15.5821 17.0301 15.969L17.0285 15.9675L15.5285 14.4675C15.5113 14.4503 15.4934 14.4341 15.475 14.4189C16.5825 13.0783 17.249 11.3609 17.249 9.49219C17.249 5.22219 13.769 1.74219 9.49902 1.74219C5.22902 1.74219 1.74902 5.22219 1.74902 9.49219ZM3.24902 9.49219C3.24902 6.04219 6.04902 3.24219 9.49902 3.24219C12.949 3.24219 15.749 6.04219 15.749 9.49219C15.749 12.9422 12.949 15.7422 9.49902 15.7422C6.04902 15.7422 3.24902 12.9422 3.24902 9.49219ZM17.4584 18.4928L19.4984 20.5328C19.7784 20.8128 20.2484 20.8128 20.5384 20.5328C20.8184 20.2528 20.8184 19.7828 20.5384 19.4928L18.4984 17.4527C18.2184 17.1727 17.7484 17.1727 17.4584 17.4527C17.1784 17.7327 17.1784 18.2028 17.4584 18.4928Z" fill="#141B34" />
</svg>