<svg xmlns="http://www.w3.org/2000/svg" viewBox="0 0 24 24" width="28" height="28" color="#000000" fill="none">
    <path fill-rule="evenodd" clip-rule="evenodd" d="M13.7154 11.567C14.1321 11.6836 14.5647 11.7439 15 11.7439V11.7539C15.0817 11.7539 15.163 11.7518 15.2437 11.7477C18.0305 11.875 20.25 14.1739 20.25 16.9922C20.25 17.4022 20.59 17.7422 21 17.7422C21.41 17.7422 21.75 17.4022 21.75 16.9922C21.75 14.2663 20.1231 11.9109 17.7899 10.8467C18.9771 9.98252 19.75 8.58211 19.75 7.00391C19.75 4.38391 17.62 2.25391 15 2.25391C12.5781 2.25391 10.5748 4.07405 10.2858 6.41884C9.87674 6.30376 9.44546 6.24219 9 6.24219C6.38 6.24219 4.25 8.37219 4.25 10.9922C4.25 12.5748 5.02718 13.9786 6.22007 14.8422C3.88156 15.9042 2.25 18.2624 2.25 20.9922C2.25 21.4022 2.59 21.7422 3 21.7422C3.41 21.7422 3.75 21.4022 3.75 20.9922C3.75 18.0922 6.1 15.7422 9 15.7422C11.9 15.7422 14.25 18.0922 14.25 20.9922C14.25 21.4022 14.59 21.7422 15 21.7422C15.41 21.7422 15.75 21.4022 15.75 20.9922C15.75 18.2624 14.1184 15.9042 11.7799 14.8422C12.8262 14.0847 13.5527 12.9117 13.7154 11.567ZM15.0937 10.2428C16.8453 10.1981 18.26 8.7559 18.26 6.9939C18.26 5.2039 16.8 3.7439 15.01 3.7439C13.22 3.7439 11.76 5.2039 11.76 6.9939C11.76 7.03848 11.7609 7.08394 11.7627 7.12976C12.6932 7.79709 13.3735 8.79202 13.6337 9.94468C14.0452 10.1367 14.4941 10.2363 14.9563 10.2435C14.9707 10.2426 14.9853 10.2422 15 10.2422C15.0313 10.2422 15.0625 10.2424 15.0937 10.2428ZM12.25 10.9922C12.25 12.7822 10.79 14.2422 9 14.2422C7.21 14.2422 5.75 12.7822 5.75 10.9922C5.75 9.20219 7.21 7.74219 9 7.74219C9.5813 7.74219 10.1278 7.89616 10.6008 8.16541C10.6398 8.1942 10.6815 8.21924 10.7254 8.24008C11.6401 8.81621 12.25 9.83527 12.25 10.9922Z" fill="#141B34" />
</svg>